<?xml version="1.0" standalone="no"?>
<!DOCTYPE svg PUBLIC "-//W3C//DTD SVG 20010904//EN"
 "http://www.w3.org/TR/2001/REC-SVG-20010904/DTD/svg10.dtd">
<svg version="1.0" xmlns="http://www.w3.org/2000/svg"
 width="1024.000000pt" height="3412.000000pt" viewBox="0 0 1024.000000 3412.000000"
 preserveAspectRatio="xMidYMid meet">
<metadata>
Created by potrace 1.15, written by Peter Selinger 2001-2017
</metadata>
<g transform="translate(0.000000,3412.000000) scale(0.100000,-0.100000)"
fill="#000000" stroke="none">
<path d="M200 33890 l0 -90 160 0 160 0 0 90 0 90 -50 0 -50 0 0 -45 0 -45
-60 0 -60 0 0 45 0 45 -50 0 -50 0 0 -90z"/>
<path d="M350 33350 c0 -15 -6 -19 -22 -17 -21 2 -23 -2 -21 -37 3 -49 9 -55
29 -30 13 16 15 16 10 2 -6 -20 10 -34 17 -16 4 8 6 7 6 -3 1 -18 46 -29 86
-21 22 4 24 8 23 73 l0 69 -64 0 c-57 0 -64 -2 -64 -20z"/>
<path d="M2473 31080 c6 -57 6 -59 -12 -48 -15 9 -23 9 -35 -1 -14 -12 -16 -9
-14 24 3 36 1 38 -30 41 -27 3 -35 0 -39 -16 -3 -11 -12 -20 -19 -20 -17 0
-18 12 -3 27 9 9 7 12 -7 12 -10 0 -53 2 -94 4 -41 2 -96 -2 -122 -9 -42 -11
-483 -20 -758 -16 -47 0 -148 1 -225 1 -77 1 -190 1 -251 1 -61 1 -155 4 -210
7 -116 8 -204 9 -256 2 -22 -3 -39 -1 -42 5 -2 8 -7 8 -16 0 -8 -8 -24 -9 -53
-2 -23 5 -61 7 -84 3 l-42 -6 -1 -410 c0 -381 1 -410 18 -415 9 -3 27 -10 39
-16 24 -12 43 -4 43 19 0 11 4 13 13 6 6 -6 22 -9 34 -8 18 1 23 -4 23 -23 0
-17 4 -23 15 -18 8 3 15 0 16 -7 0 -7 5 0 11 16 12 32 33 37 22 5 -6 -20 -5
-21 10 -9 10 9 16 10 16 2 0 -6 6 -11 14 -11 17 0 21 -87 4 -107 -8 -9 -7 -13
1 -13 7 0 10 -4 7 -9 -6 -9 -69 8 -82 22 -4 4 -19 7 -33 6 -14 0 -20 -3 -13
-6 14 -6 16 -33 2 -33 -5 0 -10 5 -10 11 0 7 -10 9 -25 5 -29 -7 -32 1 -7 21
15 12 12 13 -28 9 -25 -3 -55 -5 -67 -5 -22 -1 -23 -5 -23 -85 0 -47 5 -97 11
-113 l10 -28 17 22 c15 20 34 24 177 37 279 27 546 41 553 29 5 -7 65 -8 192
-2 102 5 279 11 394 13 127 3 213 9 219 15 13 13 405 15 423 3 6 -4 14 -18 18
-32 5 -18 5 -21 -3 -10 -12 18 -23 8 -23 -22 0 -23 9 -101 13 -105 1 -2 3 -7
4 -13 1 -5 3 -11 5 -12 1 -2 3 -25 5 -51 1 -31 11 -60 25 -80 19 -25 20 -29 6
-24 -10 4 -27 0 -39 -8 -32 -23 -61 -20 -54 5 3 12 -1 33 -9 48 -8 15 -14 33
-14 40 0 6 -5 12 -10 12 -7 0 -7 6 -2 18 5 9 12 49 16 87 5 64 4 71 -13 72
-17 1 -20 -10 -27 -130 -8 -110 -12 -131 -24 -128 -8 2 -65 3 -125 2 -111 -1
-111 -1 -153 31 -23 18 -42 36 -42 40 0 13 -38 9 -43 -4 -2 -7 -8 -10 -11 -6
-4 3 2 16 13 27 26 26 26 40 4 57 -17 13 -17 15 0 28 16 12 16 14 1 20 -9 3
-22 2 -29 -4 -7 -6 -15 -6 -21 0 -6 6 -24 4 -49 -4 -22 -8 -44 -11 -50 -8 -22
14 -93 18 -119 7 -14 -6 -17 -5 -12 3 4 7 1 12 -8 12 -12 0 -16 -10 -16 -34 0
-19 -3 -37 -7 -39 -5 -2 -62 2 -128 9 -66 6 -123 10 -128 7 -4 -2 -10 4 -14
14 -13 36 -24 44 -40 27 -9 -8 -23 -12 -34 -9 -16 5 -24 -3 -42 -42 -43 -92
-53 -101 -107 -101 -27 -1 -52 3 -55 9 -12 19 -26 8 -45 -36 l-19 -45 -270 0
-269 0 -13 38 c-10 29 -14 33 -17 17 -2 -11 -9 -23 -16 -27 -8 -6 -7 -11 4
-19 11 -8 12 -12 3 -16 -21 -8 -15 -29 13 -42 22 -10 25 -15 19 -44 -4 -17
-13 -35 -19 -39 -8 -5 -7 -8 2 -8 8 0 10 -5 6 -12 -4 -7 -7 -27 -6 -44 2 -18
-4 -39 -13 -47 -19 -20 -19 -37 0 -37 8 0 15 -4 15 -10 0 -5 -7 -10 -15 -10
-8 0 -15 -7 -15 -16 0 -14 3 -14 15 -4 9 7 15 8 15 2 0 -5 -7 -12 -15 -16 -13
-5 -15 -62 -15 -460 l1 -454 322 4 c1073 12 1216 15 1265 25 30 6 56 8 59 5 4
-3 -3 -6 -14 -6 -19 0 -20 -3 -12 -42 6 -24 16 -47 23 -53 19 -15 29 -79 30
-190 1 -110 -21 -226 -35 -188 -10 29 -12 130 -3 221 6 63 5 72 -10 72 -9 0
-16 5 -16 10 0 6 7 10 15 10 10 0 15 10 15 30 0 23 -5 30 -19 30 -21 0 -31
-19 -31 -61 0 -26 -3 -29 -30 -29 -17 0 -42 7 -55 16 -25 16 -25 16 -26 -17 0
-19 -2 -56 -3 -84 -2 -27 0 -57 4 -65 10 -21 2 -40 -18 -40 -15 0 -15 -2 -2
-10 12 -8 11 -10 -7 -10 -28 0 -38 16 -17 28 15 8 15 10 -1 15 -12 5 -16 17
-14 45 2 21 0 43 -5 50 -5 8 0 12 16 13 16 1 18 3 6 6 -29 7 -30 93 -1 93 24
0 9 23 -21 31 -19 6 -29 4 -33 -7 -3 -8 -9 -14 -15 -14 -5 0 -6 5 -3 10 3 6 2
10 -4 10 -5 0 -12 -10 -14 -22 l-4 -23 -2 23 c0 12 -8 22 -16 22 -8 0 -18 12
-21 26 -5 18 -9 22 -15 13 -4 -7 -3 -21 2 -30 5 -10 9 -36 9 -58 0 -34 3 -39
17 -34 14 6 14 3 -3 -20 -21 -29 -34 -34 -34 -13 0 8 -12 17 -26 20 -19 5 -31
1 -45 -15 -10 -12 -19 -25 -19 -30 0 -4 -21 -5 -47 -2 -27 3 -56 6 -65 6 -10
1 -18 5 -18 9 0 17 -18 7 -25 -14 -6 -18 -8 -20 -12 -7 -5 20 -50 30 -111 25
-23 -2 -45 1 -48 6 -3 5 -12 1 -20 -9 -9 -12 -13 -14 -14 -4 0 8 -6 11 -16 7
-9 -4 -23 -1 -30 5 -11 9 -18 8 -32 -3 -9 -9 -23 -13 -29 -11 -7 3 -13 -2 -13
-11 0 -20 -16 -21 -24 -1 -8 21 -86 17 -86 -4 0 -12 -3 -12 -12 -3 -15 15
-109 16 -105 1 1 -6 -8 -15 -21 -20 -14 -5 -21 -5 -17 0 9 16 -15 24 -30 11
-11 -9 -15 -9 -15 -1 0 6 -7 11 -15 11 -8 0 -15 -4 -15 -8 0 -4 -19 -7 -42 -7
-25 1 -42 6 -41 13 2 6 -18 11 -52 11 -30 0 -55 -5 -55 -10 0 -5 7 -9 15 -9 8
0 15 -7 15 -16 0 -11 -5 -14 -16 -10 -9 3 -20 6 -25 6 -5 0 -9 7 -9 15 0 21
-20 19 -20 -2 -1 -16 -2 -16 -15 1 -8 11 -15 14 -15 8 0 -7 -8 -12 -17 -12
-10 0 -24 -4 -32 -9 -11 -7 -9 -11 8 -20 12 -7 20 -8 19 -4 -2 4 2 8 7 8 13 0
8 -33 -8 -49 -7 -7 -17 -11 -22 -9 -6 2 -9 -18 -8 -49 2 -29 0 -47 -3 -40 -3
6 -17 12 -30 12 l-24 0 0 -1720 0 -1720 893 3 c490 2 906 6 923 9 17 3 114 13
215 23 101 9 270 25 374 35 193 20 592 56 720 66 39 2 110 10 158 15 80 10
109 8 95 -6 -8 -8 -233 -30 -583 -55 -71 -5 -148 -12 -170 -14 -22 -3 -146
-17 -275 -31 -129 -14 -257 -30 -285 -34 -28 -5 1706 -9 3903 -10 l3952 0 0
513 0 514 -46 -6 c-31 -3 -45 -1 -41 5 4 6 -5 13 -19 16 -15 2 -28 -1 -30 -7
-6 -15 -90 -20 -99 -6 -8 13 -62 13 -70 0 -3 -5 -21 -10 -40 -10 -29 0 -32 3
-28 21 5 19 3 20 -16 10 -11 -6 -30 -15 -41 -21 -11 -5 -40 -10 -65 -10 -25 0
-45 5 -45 10 0 6 -9 10 -19 10 -11 0 -23 -4 -26 -10 -3 -5 -28 -10 -56 -10
-27 0 -49 5 -49 10 0 6 -9 10 -19 10 -11 0 -23 -4 -26 -10 -9 -15 -97 -11
-119 5 -14 11 -22 12 -27 4 -4 -7 -29 -14 -56 -16 -38 -4 -53 -1 -67 13 -12
12 -20 14 -25 6 -12 -20 -88 -26 -114 -9 -19 12 -27 13 -36 4 -9 -9 -62 -11
-184 -10 -144 2 -174 5 -183 18 -8 11 -14 12 -19 6 -12 -21 -25 -11 -21 18 2
16 -1 35 -5 43 -6 9 -9 2 -9 -19 0 -31 -2 -33 -35 -33 -19 0 -35 -4 -35 -10 0
-5 -9 -10 -19 -10 -14 0 -19 6 -16 20 3 14 -2 20 -13 20 -9 0 -30 7 -45 15
-15 8 -25 10 -22 5 14 -22 -8 -40 -50 -40 -24 0 -47 -5 -50 -10 -4 -6 -11 -8
-16 -4 -5 3 -7 10 -4 15 4 5 -11 8 -33 7 -21 0 -44 2 -50 6 -7 4 -12 2 -12 -3
0 -6 -11 -11 -25 -11 -14 0 -25 -5 -25 -11 0 -7 -18 -10 -50 -7 -28 1 -50 0
-50 -4 0 -18 -39 -6 -54 17 -20 31 -20 32 3 38 18 4 19 13 15 103 -2 55 -6
123 -9 153 l-4 53 617 -7 c339 -4 631 -9 647 -10 26 -3 594 -6 853 -5 48 0 82
4 82 10 0 6 -45 10 -114 10 -114 0 -150 5 -141 20 3 4 61 5 130 2 l125 -5 0
430 0 431 -22 5 c-12 4 -27 2 -33 -3 -7 -6 -15 -7 -18 -3 -4 3 -7 -2 -7 -13 0
-11 -3 -15 -8 -8 -4 6 -16 12 -27 12 -60 4 -104 2 -126 -6 -25 -9 -39 -8 -75
10 -25 12 -64 -4 -64 -27 0 -8 -7 -15 -15 -15 -9 0 -18 -6 -21 -13 -3 -8 -17
-14 -32 -15 -15 0 -34 -2 -42 -4 -11 -2 -14 5 -13 27 2 29 2 29 -9 8 -13 -26
-28 -30 -28 -8 0 8 -4 15 -10 15 -5 0 -10 -4 -10 -8 0 -15 -49 -12 -58 4 -8
14 -10 14 -22 0 -9 -12 -16 -13 -25 -6 -8 7 -25 5 -55 -5 -53 -19 -53 -19 -45
5 4 11 2 20 -4 20 -6 0 -11 -7 -11 -15 0 -9 -9 -15 -25 -15 -14 0 -25 5 -25
10 0 6 5 10 12 10 6 0 9 3 5 6 -3 4 -24 -1 -47 -10 -28 -11 -40 -12 -40 -4 0
6 -6 4 -13 -6 -20 -27 -62 -18 -61 14 0 23 -11 39 -29 40 -4 0 -6 -6 -5 -12 2
-8 -6 -12 -19 -10 -12 2 -24 -2 -28 -8 -8 -13 -45 -13 -45 1 0 6 -11 1 -25
-12 -13 -13 -25 -30 -25 -37 0 -9 -12 -12 -39 -8 -22 2 -42 2 -45 -2 -13 -12
-57 -10 -63 4 -6 16 -43 19 -43 3 0 -5 -5 -7 -10 -4 -6 4 -17 1 -25 -5 -12
-10 -16 -9 -21 3 -7 20 -44 18 -44 -3 0 -9 -3 -11 -8 -5 -7 10 -48 35 -57 35
-3 0 -5 -7 -5 -15 0 -17 -12 -19 -26 -5 -7 7 -16 4 -29 -10 -22 -24 -40 -26
-31 -4 5 14 4 15 -9 4 -22 -18 -18 -30 11 -30 31 0 22 -20 -9 -21 -12 0 -16
-3 -9 -6 15 -6 6 -23 -13 -23 -9 0 -12 8 -9 25 2 14 0 25 -5 25 -6 0 -8 7 -5
15 8 19 -10 20 -28 2 -7 -8 -26 -17 -42 -21 -26 -6 -28 -5 -24 17 4 22 1 24
-40 26 -37 1 -43 -1 -38 -15 3 -8 6 -18 6 -20 0 -2 5 -4 10 -4 6 0 10 7 10 15
0 8 5 15 10 15 6 0 10 -9 10 -20 0 -16 -7 -20 -38 -20 -38 0 -38 0 -41 42 -2
41 -15 61 -36 55 -5 -2 -10 -14 -10 -28 0 -28 -27 -37 -59 -19 -12 6 -28 10
-36 8 -7 -2 -17 8 -21 22 -5 17 -7 19 -8 7 -1 -14 -9 -17 -38 -16 -50 3 -81
-15 -85 -48 -2 -16 -8 6 -12 48 -11 101 -8 114 29 115 17 1 38 5 47 9 9 4 22
4 27 0 6 -3 23 1 39 9 19 10 81 17 202 22 96 4 182 6 190 6 8 -1 242 -4 520
-7 278 -3 639 -7 803 -9 l297 -3 0 368 c0 362 0 369 -20 369 -11 0 -20 5 -20
10 0 6 9 10 20 10 20 0 20 7 20 686 l0 686 -82 -3 c-46 -2 -86 -8 -90 -14 -5
-6 -8 -5 -8 3 0 6 -5 12 -11 12 -6 0 -8 -7 -5 -16 5 -12 1 -14 -15 -9 -12 4
-24 2 -28 -4 -8 -12 -218 -30 -229 -19 -4 4 -27 2 -52 -3 -28 -7 -87 -8 -160
-3 -63 5 -130 7 -149 5 -19 -2 -63 0 -99 4 -55 6 -63 9 -59 25 7 28 -7 44 -29
32 -11 -5 -29 -8 -42 -6 -17 3 -25 -3 -33 -24 -11 -26 -11 -26 -19 -6 -13 33
-27 37 -44 13 -12 -18 -27 -23 -82 -25 -38 -2 -94 -9 -126 -14 -65 -12 -94 -7
-121 22 -13 13 -22 16 -31 9 -8 -7 -12 -5 -13 9 -1 11 2 22 8 25 5 4 9 1 9 -4
0 -6 5 -11 11 -11 17 0 6 33 -12 35 -9 2 -31 6 -48 10 -24 5 -31 3 -31 -9 0
-9 4 -16 9 -16 15 0 41 -59 30 -66 -6 -3 -15 -1 -22 5 -8 6 -18 6 -27 1 -7 -5
-50 -9 -94 -10 -118 -3 -140 -2 -144 10 -2 5 -10 10 -18 10 -9 0 -12 -4 -9
-10 9 -14 -1 -12 -35 5 -17 9 -30 11 -30 5 0 -5 7 -10 15 -10 8 0 15 -4 15
-10 0 -6 -9 -6 -25 0 -28 11 -107 11 -100 0 2 -4 -2 -7 -10 -7 -16 0 -18 35
-15 208 1 76 1 77 -27 84 l-28 8 30 8 c29 8 1709 3 1948 -6 l127 -5 0 343 c0
189 -3 347 -7 350 -3 4 -13 2 -20 -5 -9 -7 -17 -8 -21 -2 -9 12 -122 13 -122
1 0 -5 -26 -6 -62 -2 -35 4 -76 6 -93 5 -16 -1 -59 -2 -95 -3 -36 -1 -71 -6
-79 -11 -9 -6 -12 -5 -8 1 10 15 -42 26 -59 13 -19 -17 -169 -17 -159 -1 2 5
-10 7 -28 5 -17 -1 -32 -3 -32 -4 0 -1 -81 -3 -180 -5 -222 -3 -210 -2 -229
-20 -13 -14 -18 -14 -38 -2 -13 8 -33 14 -46 12 -13 -1 -25 2 -28 6 -2 5 -17
4 -32 -2 -18 -7 -28 -7 -30 0 -2 6 -11 11 -20 11 -15 0 -15 -2 -2 -10 11 -8 8
-9 -12 -4 -16 3 -28 2 -28 -2 0 -5 -25 -9 -55 -10 -30 0 -49 3 -43 7 7 4 -24
8 -67 9 -158 2 -152 1 -130 10 18 7 19 8 2 15 -10 4 -24 2 -32 -5 -9 -7 -18
-10 -22 -7 -3 4 -12 2 -19 -4 -13 -11 -64 -2 -64 12 0 5 -9 9 -19 9 -11 0 -22
4 -25 8 -6 10 -42 9 -52 -1 -4 -4 -18 -7 -30 -7 -21 0 -22 4 -21 53 2 39 6 52
17 52 11 0 15 -10 14 -37 -1 -39 3 -42 44 -32 16 5 20 10 12 19 -7 8 -3 15 14
24 13 7 30 24 37 37 7 13 16 24 20 24 9 0 24 -41 20 -55 -3 -11 40 24 52 43 4
6 15 12 23 12 8 0 12 -5 9 -10 -7 -12 12 -40 27 -40 6 0 7 13 3 32 -6 26 -5
30 9 25 8 -3 18 -2 22 4 3 5 34 9 67 9 34 -1 283 -1 552 0 270 0 619 -3 777
-6 l287 -7 1 512 0 511 -998 -2 -997 -3 3 -43 c3 -30 -1 -49 -13 -62 -9 -10
-14 -23 -11 -29 11 -17 -52 -24 -70 -7 -14 15 -14 16 3 17 10 0 13 3 6 5 -7 3
-10 11 -7 17 2 7 -2 21 -10 32 -14 19 -15 17 -13 -22 2 -56 -19 -76 -28 -26
-2 10 -4 20 -5 23 -1 3 -1 16 0 30 1 14 -1 22 -4 19 -4 -4 -8 -27 -10 -53 -2
-44 -19 -77 -32 -64 -3 4 -8 27 -11 52 -4 39 -2 46 14 47 13 1 11 3 -7 9 l-25
7 25 12 25 11 -27 -3 c-32 -5 -28 20 5 26 12 2 0 5 -27 6 -33 1 -52 -4 -60
-14 -14 -18 -76 -32 -76 -17 0 6 12 13 28 15 19 3 14 4 -15 6 -46 1 -59 -19
-25 -38 14 -8 10 -10 -20 -11 -42 0 -59 15 -26 23 33 9 13 21 -40 23 -26 1
-78 5 -117 9 -41 5 -66 4 -62 -1 5 -5 25 -9 45 -9 31 0 38 -4 40 -24 3 -22 1
-23 -28 -17 -18 3 -36 6 -41 6 -5 0 -9 7 -9 15 0 11 -11 15 -37 16 -30 0 -34
2 -18 9 11 5 -371 9 -870 9 -580 1 -885 -3 -875 -9 13 -8 13 -10 -2 -10 -9 0
-20 5 -23 10 -3 6 -47 10 -98 10 -76 0 -88 -2 -73 -13 18 -13 12 -52 -6 -41
-14 9 2 -39 16 -49 7 -4 3 -9 -10 -13 -14 -4 -24 -18 -30 -42 -9 -37 -44 -59
-44 -29 0 9 -6 18 -12 20 -10 4 -10 6 0 6 20 2 13 21 -8 21 -11 0 -19 6 -18
13 2 7 -9 13 -24 15 -16 2 -28 8 -28 14 0 6 -13 8 -30 6 -19 -3 -30 0 -30 8 0
9 -20 11 -72 8 -40 -2 -79 -4 -85 -4 -7 0 -13 -8 -13 -17 -1 -17 -1 -17 -10
-1 -6 9 -18 15 -28 14 -9 -2 -54 -7 -99 -11 -46 -4 -83 -11 -83 -17 0 -5 -6
-6 -12 -1 -7 4 -39 8 -72 9 -32 1 -61 6 -65 10 -9 13 -44 11 -48 -2 -2 -7 -22
-8 -61 -2 -109 16 -262 20 -278 8 -8 -7 -14 -8 -14 -3 0 11 -85 7 -102 -3 -6
-4 -13 -2 -17 5 -5 7 -17 8 -37 2 -25 -7 -266 -6 -424 2 -30 2 -60 -1 -67 -5
-6 -5 -14 -5 -17 1 -4 6 -13 8 -21 4 -8 -3 -15 0 -15 7 0 7 -6 10 -14 7 -8 -3
-17 -1 -20 6 -2 7 -8 2 -11 -10 -7 -21 -14 -23 -79 -25 -39 -1 -95 -1 -125 0
-39 1 -60 -3 -73 -15 -17 -15 -18 -15 -19 3 0 19 -1 19 -8 0 -7 -18 -8 -18
-14 -2 -4 10 -7 27 -8 39 0 21 -1 20 -11 -3 l-11 -25 -7 25 c-6 24 -7 24 -15
-10 -4 -19 -10 -29 -12 -22 -3 6 -10 12 -17 12 -8 0 -13 -16 -13 -46 0 -26 -5
-49 -12 -54 -11 -6 -11 -9 0 -13 8 -3 9 -6 3 -6 -6 -1 -9 -12 -6 -26 2 -15 0
-25 -7 -25 -6 0 -11 10 -12 23 0 12 -3 33 -5 47 -2 14 -5 33 -5 43 0 9 -6 17
-12 17 -7 0 -6 4 3 10 13 8 13 11 -2 26 -21 21 -41 9 -34 -20 7 -27 -17 -66
-28 -48 -4 7 -1 12 6 12 10 0 10 2 -1 9 -13 9 -56 3 -47 -7 3 -2 1 -12 -4 -22
-5 -9 -10 -34 -12 -54 -1 -25 -9 -41 -25 -51 -29 -20 -31 -49 -3 -40 14 5 20
2 20 -9 0 -9 -6 -16 -14 -16 -8 0 -16 -4 -18 -10 -1 -5 -14 2 -27 15 -13 14
-18 25 -12 25 6 0 8 7 5 15 -4 8 -1 15 5 15 6 0 10 3 10 8 -1 4 -1 33 0 65 1
66 18 77 24 15 3 -38 4 -36 5 14 2 52 0 56 -18 51 -11 -3 -20 0 -20 6 0 6 5
11 10 11 6 0 10 4 10 10 0 5 -7 7 -15 4 -8 -4 -15 -2 -15 4 0 5 7 15 15 22 8
7 15 17 15 23 0 5 -9 2 -20 -8 -16 -14 -23 -16 -32 -7 -9 9 -8 12 4 12 19 0
27 17 20 43 -4 15 -23 17 -215 17 l-210 0 6 -60z m5467 -776 c6 -14 8 -30 4
-35 -6 -11 -24 -12 -23 -1 1 4 1 14 0 22 -1 11 -4 11 -13 2 -9 -9 -9 -15 0
-24 7 -7 12 -20 12 -30 0 -10 5 -26 11 -37 16 -24 3 -91 -16 -91 -24 0 -17
-20 8 -21 13 0 16 -2 7 -6 -8 -2 -22 -7 -30 -10 -8 -3 -31 -7 -50 -10 -19 -2
-42 -6 -50 -9 -18 -7 -111 -6 -157 3 -24 4 -33 1 -33 -8 0 -15 8 -16 180 -21
63 -1 127 1 141 5 22 5 28 2 37 -19 13 -27 14 -112 2 -159 -4 -16 -8 -25 -9
-18 0 6 -6 24 -13 40 -6 15 -12 31 -12 35 -1 4 -12 15 -25 24 -22 16 -25 16
-36 1 -6 -9 -23 -19 -37 -22 -24 -6 -25 -8 -12 -33 7 -14 11 -29 7 -32 -3 -3
-8 1 -10 8 -3 6 -14 12 -25 12 -13 0 -18 5 -15 14 3 8 -3 22 -14 32 -17 16
-19 16 -14 1 6 -14 2 -15 -26 -7 -17 5 -36 7 -41 4 -5 -3 -15 0 -23 6 -12 10
-15 10 -15 0 0 -9 -6 -7 -20 5 -17 16 -20 16 -26 2 -3 -9 -13 -16 -22 -16 -55
-2 -147 1 -153 5 -4 2 -10 0 -14 -6 -3 -5 -16 -9 -28 -9 -12 0 -50 -4 -85 -10
-38 -7 -69 -8 -80 -3 -22 12 -59 9 -74 -6 -14 -14 -38 -16 -38 -4 0 5 -15 9
-32 10 -66 2 -113 8 -126 15 -7 5 -12 2 -12 -7 0 -12 -10 -16 -40 -16 -22 0
-40 5 -40 10 0 6 -7 10 -15 10 -8 0 -15 -6 -15 -12 0 -8 -16 -14 -40 -16 -33
-2 -40 1 -40 15 0 15 -2 16 -10 3 -5 -8 -19 -15 -32 -15 -13 -1 -29 -5 -36 -8
-17 -11 -62 3 -62 19 0 8 -4 14 -10 14 -5 0 -10 -6 -10 -14 0 -8 -9 -18 -20
-21 -23 -7 -25 -16 -8 -33 7 -7 8 -12 2 -12 -6 0 -21 11 -34 25 -13 14 -18 25
-12 25 7 0 12 5 12 10 0 6 -8 10 -18 10 -10 0 -23 5 -30 12 -9 9 -12 9 -12 1
0 -12 -38 -12 -58 1 -12 7 -16 1 -25 -39 -5 -19 -5 -19 -12 2 -9 28 -22 32
-63 18 -37 -13 -32 -25 10 -25 15 0 28 -4 28 -10 0 -5 -24 -10 -52 -9 -29 0
-47 3 -40 6 6 2 9 9 6 14 -3 6 -12 5 -21 -2 -12 -10 -16 -10 -24 2 -5 8 -9 9
-9 4 0 -18 -77 -16 -92 2 -12 15 -11 15 10 4 13 -7 26 -10 30 -7 10 10 -4 16
-49 20 -24 2 -36 2 -26 -1 9 -2 17 -9 17 -14 0 -11 -3 -11 -34 1 -18 6 -26 6
-26 -1 0 -6 -9 -8 -20 -4 -14 4 -20 2 -20 -9 0 -9 -10 -22 -23 -31 -41 -26
-413 -12 -505 20 -17 6 -22 14 -20 33 2 20 -3 27 -27 35 -16 6 -36 17 -42 26
-11 14 -14 14 -23 1 -7 -11 -3 -20 18 -38 15 -12 35 -21 45 -18 12 3 17 -2 17
-15 0 -11 -8 -22 -17 -25 -10 -3 -26 -10 -35 -15 -12 -6 -18 -6 -18 1 0 5 -4
10 -10 10 -5 0 -7 -7 -4 -15 4 -9 0 -15 -9 -15 -10 0 -17 13 -21 38 -7 40 1
268 9 282 3 5 18 15 33 23 23 11 39 11 87 1 33 -6 62 -10 64 -8 2 2 -1 4 -7 4
-7 0 -12 9 -12 19 0 11 -4 22 -8 25 -10 6 -3 76 9 76 8 0 23 -63 21 -92 -2
-34 24 -40 175 -42 82 0 157 3 168 7 17 8 17 7 -2 -10 -22 -18 -20 -18 130
-17 83 0 283 -5 442 -12 1181 -50 1184 -50 1201 -22 5 7 9 7 13 -1 5 -7 31 -4
84 9 66 17 110 26 139 29 4 1 5 8 1 17 -3 8 3 31 13 49 13 25 15 38 7 46 -7 7
-12 3 -17 -15 -7 -29 -40 -36 -50 -10 -4 10 1 18 14 21 25 7 7 27 -34 37 -27
7 -28 8 -11 26 10 11 31 20 46 20 15 0 31 5 34 10 3 6 17 10 31 10 17 0 27 -8
34 -26z m-5126 -306 c1 -13 6 -29 10 -36 4 -7 2 -12 -6 -13 -7 0 -4 -4 7 -9
11 -5 14 -9 7 -9 -9 -1 -11 -8 -7 -21 4 -11 2 -20 -4 -20 -6 0 -11 -5 -11 -11
0 -6 7 -8 16 -5 13 5 14 2 8 -11 -4 -10 -8 -32 -8 -50 -1 -17 -4 -35 -8 -39
-12 -12 -9 -26 4 -18 8 5 9 0 5 -16 -3 -13 -1 -30 5 -38 8 -9 8 -16 1 -20 -17
-12 -20 -97 -3 -117 5 -6 8 -14 6 -16 -8 -10 -16 -60 -8 -55 4 2 9 -50 10
-117 1 -67 4 -140 6 -161 3 -26 1 -35 -5 -25 -7 11 -9 11 -9 -3 0 -9 5 -20 10
-23 7 -4 6 -13 -1 -26 -5 -11 -7 -29 -4 -39 4 -12 2 -20 -4 -20 -6 0 -11 -5
-11 -11 0 -5 4 -8 9 -4 6 3 10 -15 10 -42 0 -27 1 -57 2 -68 3 -55 -4 -164
-12 -197 -7 -26 -6 -45 1 -58 7 -14 7 -20 0 -20 -16 0 -12 -27 6 -34 12 -5 15
-14 11 -34 -3 -15 1 -45 9 -67 13 -38 13 -41 -7 -57 -21 -18 -89 -25 -103 -10
-4 4 -11 7 -14 8 -35 3 -93 18 -97 25 -3 4 1 22 10 39 9 17 13 35 10 40 -4 6
1 35 10 65 10 35 13 69 9 92 -5 26 -4 34 5 29 6 -4 13 -1 16 6 7 16 76 22 86
7 12 -19 27 -1 21 26 -3 16 -10 24 -17 21 -17 -6 -14 59 3 76 7 7 12 26 12 44
0 40 -38 69 -82 60 -18 -3 -27 -2 -23 4 3 6 23 10 44 10 49 0 61 14 61 74 0
39 -3 47 -12 38 -14 -14 -84 -16 -92 -3 -11 18 24 34 64 28 l40 -5 0 43 c0 36
-4 44 -22 48 -29 8 -37 -1 -15 -17 22 -17 23 -51 1 -42 -9 3 -30 6 -47 7 -20
0 -26 3 -17 7 17 8 25 52 10 52 -6 0 -10 5 -10 11 0 8 17 10 50 7 46 -5 50 -3
50 17 0 21 -4 22 -52 17 -46 -4 -51 -3 -44 13 4 11 1 22 -6 27 -8 6 9 8 45 6
57 -3 57 -3 57 25 0 20 -4 26 -12 20 -29 -18 -41 -10 -15 11 22 18 27 30 27
69 0 46 0 46 -29 41 -42 -9 -80 21 -81 64 0 31 2 32 39 32 22 0 43 -4 46 -10
13 -22 25 -8 25 28 0 43 -29 80 -52 66 -7 -4 -25 -7 -40 -6 -23 2 -29 -3 -34
-25 -10 -46 -12 -49 -13 -16 -1 17 3 34 8 37 4 3 4 26 -2 51 -7 31 -7 52 0 68
6 13 9 37 6 53 -5 27 -4 28 12 13 15 -15 16 -19 1 -47 -22 -43 -20 -78 6 -96
31 -22 52 -20 85 8 24 21 26 27 18 52 -6 16 -23 35 -39 43 l-29 14 31 13 c39
16 51 54 28 89 -9 14 -24 26 -34 26 -9 1 -25 2 -34 3 -37 2 -21 21 20 24 33 2
42 0 42 -12 0 -9 5 -16 10 -16 6 0 10 12 10 27 0 32 10 25 14 -9z m-1566 -229
l112 -12 0 -38 c0 -35 -3 -39 -24 -39 -14 0 -38 12 -56 26 -29 25 -32 25 -49
10 -10 -9 -21 -13 -24 -9 -6 6 -33 11 -81 16 -12 1 -22 13 -27 29 -8 31 -2 40
20 34 9 -3 67 -10 129 -17z m962 -149 c0 -5 -9 -14 -20 -20 -11 -6 -20 -17
-20 -25 0 -8 -9 -15 -21 -15 -11 0 -17 -4 -14 -10 3 -5 1 -10 -5 -10 -6 0 -8
-5 -5 -10 4 -6 10 -8 15 -5 5 3 11 1 15 -5 12 -20 25 -10 25 20 0 38 27 40 67
6 23 -20 27 -31 26 -67 -1 -24 2 -48 6 -54 9 -11 9 -45 -1 -61 -4 -5 -3 -16 2
-24 5 -8 5 -21 -1 -32 -6 -12 -5 -24 3 -38 10 -16 10 -24 1 -40 -7 -10 -10
-27 -6 -36 5 -14 0 -16 -30 -12 -21 2 -37 0 -37 -4 0 -4 -5 -8 -10 -8 -6 0 -9
3 -8 8 1 4 -2 63 -7 132 -5 69 -8 135 -7 148 2 17 -2 22 -21 22 -14 0 -31 7
-38 17 -13 15 -14 13 -19 -12 -5 -29 -34 -55 -47 -42 -4 5 -1 12 7 17 12 8 12
10 -3 16 -9 3 -17 15 -17 26 0 14 -5 18 -15 15 -8 -4 -17 -2 -21 4 -3 5 -13 7
-23 4 -9 -3 -26 2 -37 10 -19 14 -19 14 1 15 17 0 17 2 5 10 -22 14 -27 12
-33 -9 -3 -13 -16 -21 -38 -24 -30 -4 -32 -5 -12 -12 38 -13 16 -24 -27 -13
-29 8 -44 7 -55 -2 -8 -6 -19 -9 -25 -5 -8 5 -6 11 6 19 11 9 13 15 6 20 -6 3
-18 -7 -28 -23 -12 -21 -22 -28 -32 -22 -8 4 -41 3 -73 -4 -38 -8 -59 -9 -59
-3 0 6 -13 8 -30 5 -17 -4 -30 -2 -30 3 0 6 -9 10 -21 10 -11 0 -17 -4 -14
-10 4 -6 -2 -7 -17 -1 -23 8 -62 7 -106 -4 -21 -5 -23 -3 -17 17 4 15 3 18 -3
10 -5 -7 -16 -10 -25 -6 -12 4 -17 1 -18 -12 -1 -17 -2 -17 -6 -1 -5 20 -19
22 -27 5 -4 -10 -9 -9 -18 4 -11 15 -13 15 -24 0 -10 -14 -14 -14 -29 -2 -11
9 -19 10 -23 3 -10 -16 -63 -11 -57 5 3 10 0 10 -16 1 -11 -6 -27 -8 -35 -5
-8 3 -14 -1 -14 -8 0 -13 -34 -12 -70 1 -8 4 -21 5 -27 4 -20 -3 -15 10 15 42
l27 30 -45 -24 c-25 -13 -46 -27 -48 -31 -2 -5 -14 -8 -26 -8 -12 0 -28 -6
-34 -12 -10 -10 -15 -10 -21 1 -7 10 -10 10 -16 1 -5 -8 -23 -10 -55 -6 -45 6
-48 5 -43 -14 3 -11 2 -28 -2 -37 -5 -10 -7 -21 -7 -25 1 -5 -12 -8 -28 -8
-30 0 -40 14 -17 24 9 5 9 7 0 12 -7 3 -13 19 -13 35 0 59 -26 8 -33 -64 -1
-12 -7 -17 -19 -14 -10 3 -18 1 -18 -4 0 -5 -4 -9 -10 -9 -18 0 -10 29 12 44
l22 16 -22 0 c-17 0 -22 6 -22 24 0 25 -12 40 -24 29 -14 -15 -55 -11 -59 5
-2 9 -8 -2 -12 -25 -7 -38 -11 -43 -34 -43 -20 0 -22 -3 -11 -9 8 -6 17 -8 21
-5 4 2 10 0 14 -6 3 -5 -3 -10 -14 -10 -11 0 -23 -4 -26 -10 -3 -5 -11 -10
-17 -10 -7 0 -6 5 1 14 8 10 9 16 1 21 -21 13 -10 35 18 35 l27 0 -32 16 c-18
9 -30 21 -27 26 3 5 -3 4 -15 -4 -12 -7 -17 -14 -11 -16 20 -7 9 -22 -17 -23
l-28 -2 28 -4 c28 -4 38 -23 12 -23 -18 0 -20 -16 -2 -24 9 -5 9 -7 -1 -12 -9
-4 -10 -9 -2 -19 8 -10 5 -13 -15 -11 -27 1 -33 11 -12 19 7 3 5 6 -5 6 -10 1
-18 6 -18 11 0 6 8 10 18 10 16 1 16 2 0 13 -11 9 -16 27 -16 59 l1 46 36 -4
c30 -4 32 -3 14 5 -13 6 -20 16 -18 24 6 14 89 42 115 39 38 -5 616 -4 898 1
193 3 314 1 318 -4 4 -6 11 -6 19 1 9 7 15 8 19 1 4 -6 13 -8 21 -4 8 3 15 0
15 -6 0 -12 46 -5 65 9 6 4 71 9 145 10 186 3 192 3 215 17 24 15 55 17 55 3z
m1115 -190 c11 14 32 26 46 26 24 2 26 -1 25 -47 -1 -27 2 -49 7 -49 4 0 7 5
7 11 0 5 5 7 10 4 6 -4 8 -14 6 -23 -3 -10 -2 -23 3 -31 13 -20 2 -41 -21 -41
-11 0 -29 -5 -41 -12 -20 -10 -21 -10 -8 5 20 24 1 21 -26 -5 l-23 -22 6 32
c7 34 -3 89 -14 78 -6 -7 -8 -28 -11 -111 -1 -23 -4 -27 -11 -15 -10 16 -3
207 8 225 4 5 9 -3 12 -20 l5 -29 20 24z m2276 -146 c10 -9 28 -15 41 -13 32
3 1787 -2 1818 -6 14 -2 122 -4 240 -4 118 -1 221 -5 229 -10 12 -8 10 -18
-12 -60 -20 -39 -23 -51 -12 -51 20 0 19 -44 -1 -64 -11 -12 -35 -16 -89 -16
-41 0 -77 -5 -80 -10 -4 -7 14 -8 52 -5 44 5 54 4 41 -5 -20 -12 -188 -6 -197
7 -9 14 -203 14 -219 1 -9 -8 -16 -8 -20 -1 -4 5 -17 12 -29 15 -16 4 -20 2
-16 -8 3 -8 0 -14 -6 -14 -6 0 -11 5 -11 10 0 6 -6 10 -12 8 -7 -1 -24 2 -37
6 -13 5 -27 4 -33 -2 -8 -8 -4 -9 11 -5 12 3 21 1 21 -6 0 -6 -19 -11 -45 -11
-47 0 -62 15 -22 23 12 2 -63 5 -167 6 -168 1 -192 -1 -220 -18 -25 -15 -41
-17 -81 -11 -50 7 -50 7 -10 9 30 1 36 4 25 11 -22 14 -61 12 -74 -5 -12 -16
-133 -24 -156 -10 -15 9 -356 18 -648 16 -117 0 -211 3 -208 8 6 10 -106 23
-127 15 -23 -8 -28 24 -21 123 7 91 7 93 32 93 14 0 33 -7 43 -16z m-166 -178
c22 -6 25 -12 24 -49 0 -23 -3 -36 -6 -29 -2 6 -12 12 -21 12 -12 0 -13 -3 -5
-11 9 -9 8 -15 -3 -26 -20 -21 -19 -111 3 -135 15 -17 15 -18 0 -18 -10 0 -17
5 -17 10 0 6 -6 10 -14 10 -15 0 -16 16 -1 39 5 10 4 16 -3 19 -7 2 -12 8 -12
13 0 6 5 7 10 4 15 -9 12 4 -4 20 -7 8 -23 11 -34 8 -19 -4 -21 -11 -19 -54 2
-27 0 -49 -5 -49 -4 0 -8 13 -8 29 0 29 -14 41 -51 41 -11 0 -19 7 -19 16 0 8
-4 13 -10 9 -5 -3 -7 -12 -3 -20 4 -11 -2 -15 -18 -14 -23 0 -23 1 -4 9 l20 9
-20 1 c-15 1 -16 3 -5 7 16 7 45 33 36 33 -3 0 -17 -5 -31 -12 -24 -11 -31
-31 -27 -81 1 -10 -3 -15 -8 -12 -6 3 -10 15 -10 26 0 11 -5 17 -10 14 -6 -4
-8 -16 -4 -28 5 -17 4 -19 -6 -10 -7 6 -18 9 -25 6 -7 -2 -16 4 -19 15 -7 20
-7 20 -46 1 -21 -10 -49 -19 -62 -18 -21 0 -22 1 -3 8 15 6 10 9 -24 14 -24 3
-49 11 -55 17 -8 8 -5 9 15 2 15 -6 40 -7 60 -2 l34 8 -45 1 c-25 1 -58 8 -75
16 -29 13 -28 13 25 8 30 -3 53 -3 50 0 -3 3 -35 8 -70 10 l-65 5 28 -22 c27
-22 36 -46 17 -46 -5 0 -10 6 -10 14 0 8 -7 17 -16 20 -15 6 -15 4 -3 -10 11
-14 10 -15 -7 -12 -12 1 -22 -1 -23 -7 -1 -5 -14 -16 -28 -24 -24 -12 -28 -11
-40 5 -7 10 -13 24 -13 31 0 7 -4 13 -10 13 -5 0 -10 5 -10 10 0 6 15 10 33
11 17 0 41 4 52 9 37 15 -11 24 -58 11 -23 -6 -53 -12 -67 -12 -44 1 -90 -6
-97 -12 -9 -9 -23 -9 -22 1 3 19 -2 23 -16 12 -18 -15 -83 -21 -91 -8 -3 4 -9
6 -14 3 -5 -3 -37 -7 -71 -10 -49 -3 -65 0 -75 12 -16 23 -44 9 -44 -22 0 -31
-13 -32 -27 -2 -9 19 -18 22 -62 21 -28 0 -51 3 -51 8 0 17 -32 7 -37 -11 -3
-11 -12 -19 -21 -19 -28 2 -96 -13 -122 -27 -14 -8 -37 -16 -53 -20 -15 -3
-36 -14 -47 -25 -11 -11 -20 -19 -21 -17 0 1 -2 14 -4 30 -3 23 0 27 22 27 21
0 23 2 13 15 -8 10 -18 12 -29 6 -23 -12 -41 -3 -35 17 3 11 -1 9 -12 -5 -19
-27 -39 -30 -48 -7 -3 8 -10 12 -16 9 -6 -4 -8 -10 -5 -15 3 -5 1 -11 -5 -15
-5 -3 -7 -17 -4 -29 4 -18 1 -25 -15 -29 -23 -6 -55 18 -46 34 4 5 2 9 -3 9
-6 0 -8 10 -5 23 3 12 3 19 0 16 -6 -4 -14 -36 -16 -61 -1 -5 -13 -9 -28 -9
l-28 -1 30 -8 30 -8 -32 -1 c-18 0 -33 1 -33 3 0 2 -3 11 -6 20 -5 12 1 16 22
17 l29 2 -27 4 c-36 6 -36 23 -1 23 41 0 19 12 -27 14 l-40 2 0 -43 c0 -24 -4
-43 -10 -43 -5 0 -10 15 -10 33 0 49 -11 77 -29 77 -14 0 -14 -2 -1 -10 12 -8
12 -12 2 -19 -13 -8 -19 -28 -21 -61 -1 -10 -12 -15 -31 -16 -35 -1 -42 22 -7
29 18 4 18 4 -6 6 -26 1 -28 3 -24 41 2 22 0 40 -4 40 -5 0 -9 -7 -9 -15 0
-10 -10 -15 -32 -15 -17 0 -28 -3 -24 -7 4 -5 16 -8 27 -8 10 0 18 -4 16 -10
-1 -5 -12 -9 -24 -7 -13 1 -23 -2 -23 -8 0 -5 11 -10 25 -10 16 0 25 -6 25
-15 0 -10 -11 -15 -35 -15 -27 0 -34 4 -33 18 3 35 -2 62 -12 62 -5 0 -10 -11
-10 -25 0 -20 -5 -25 -27 -26 -21 -1 -23 -2 -8 -6 30 -7 43 -23 18 -23 -12 0
-28 -3 -37 -6 -13 -5 -16 2 -16 45 0 56 -9 64 -30 27 -7 -15 -18 -22 -27 -19
-11 5 -11 9 3 24 15 17 16 19 1 19 -9 0 -21 10 -28 21 -8 15 -8 19 0 15 17
-11 26 24 13 45 -7 10 -12 28 -12 38 0 22 24 29 115 33 116 6 2198 9 2220 4z
m1335 -451 c96 -3 209 -8 250 -10 160 -11 277 -16 335 -15 37 1 72 -5 90 -14
18 -9 31 -12 33 -6 6 17 102 12 108 -5 4 -10 13 -13 24 -10 12 4 24 -2 34 -17
9 -12 16 -17 16 -11 0 7 -4 15 -10 18 -25 15 -9 35 28 35 40 0 57 -8 63 -27 3
-10 11 -9 34 3 32 16 95 12 95 -7 0 -20 -21 -49 -35 -49 -8 0 -15 -7 -15 -15
0 -8 4 -15 9 -15 5 0 14 7 21 15 19 22 30 18 30 -11 0 -22 -2 -25 -15 -14 -18
15 -20 1 -4 -34 15 -33 -5 -86 -32 -86 -24 0 -25 -35 -2 -44 15 -6 15 -8 3
-16 -22 -14 -30 -12 -24 5 7 18 -9 19 -36 3 -15 -10 -24 -9 -45 2 -22 12 -26
19 -21 42 3 15 1 28 -4 28 -6 0 -10 -4 -10 -10 0 -5 -7 -7 -15 -4 -9 4 -15 0
-15 -8 0 -20 -34 -58 -52 -58 -8 0 -25 11 -37 24 l-23 24 28 36 28 35 23 -21
c13 -12 23 -16 23 -10 0 7 -5 12 -11 12 -8 0 -9 11 -5 31 5 27 4 30 -9 19 -12
-10 -18 -10 -32 1 -16 13 -17 12 -4 -4 12 -15 10 -21 -20 -50 -19 -17 -39 -31
-46 -29 -6 1 -13 -7 -15 -18 -2 -12 -15 -29 -30 -38 -26 -15 -28 -15 -53 8
-14 13 -25 31 -25 41 0 9 -9 19 -21 22 -17 5 -20 2 -16 -14 3 -13 -5 -27 -25
-44 -34 -28 -39 -30 -56 -13 -9 9 -12 8 -12 -5 0 -13 -9 -17 -45 -17 -25 0
-45 2 -45 5 0 15 44 42 62 37 17 -4 20 -2 15 12 -4 10 -7 22 -7 27 0 22 -37 6
-58 -26 -26 -41 -55 -45 -77 -11 -15 23 -15 27 0 50 23 34 55 44 72 20 7 -10
13 -15 13 -11 0 6 -21 58 -27 66 -2 3 -19 -14 -39 -38 -25 -29 -41 -40 -54
-36 -14 4 -16 1 -13 -18 4 -18 -3 -30 -25 -46 -35 -25 -52 -27 -52 -6 0 8 -4
15 -10 15 -5 0 -10 -9 -10 -20 0 -16 -7 -20 -35 -20 -19 0 -35 3 -35 7 0 12
33 43 47 43 7 0 13 4 13 9 0 5 3 16 6 24 4 11 -1 13 -20 10 -15 -3 -26 -12
-26 -21 0 -22 -30 -52 -51 -52 -10 0 -27 12 -38 26 l-21 26 22 30 21 31 -25
-17 c-14 -9 -32 -15 -39 -14 -8 2 -13 -3 -11 -11 3 -15 -23 -48 -49 -62 -23
-12 -72 36 -64 62 5 14 2 17 -9 13 -9 -4 -24 0 -33 7 -14 12 -15 11 -9 -9 8
-25 -27 -72 -55 -72 -27 0 -52 36 -45 65 6 23 4 25 -11 17 -10 -5 -24 -7 -30
-5 -9 3 -12 -4 -11 -22 2 -15 9 -30 18 -33 46 -17 30 -53 -21 -50 -44 2 -47 5
-22 24 10 7 14 16 9 21 -5 4 -11 2 -13 -4 -9 -26 -52 -14 -68 18 -15 29 -15
32 1 50 9 10 12 19 7 19 -6 0 -13 -7 -17 -15 -3 -8 -14 -15 -25 -15 -10 0 -21
-9 -24 -19 -2 -10 -17 -27 -32 -37 -27 -18 -28 -18 -51 10 -28 32 -29 39 -9
60 22 22 18 32 -4 12 -13 -12 -27 -15 -41 -11 -19 6 -20 4 -15 -22 5 -21 4
-24 -4 -13 -9 12 -11 11 -11 -8 0 -13 6 -22 13 -21 24 3 42 -2 62 -17 17 -13
18 -16 5 -24 -8 -5 -32 -10 -52 -10 -34 0 -38 3 -38 26 0 22 -2 24 -15 14 -8
-6 -23 -9 -34 -5 -16 5 -18 12 -14 45 4 27 1 44 -10 54 -8 8 -17 12 -21 9 -3
-4 -6 3 -6 15 0 36 -19 34 -26 -3 -6 -35 -17 -44 -30 -24 -3 6 -2 14 4 18 6 3
0 11 -14 18 -20 9 -24 9 -24 -6 0 -9 -9 -22 -19 -28 -17 -11 -21 -9 -27 9 -4
13 -9 17 -13 9 -4 -6 -15 -9 -24 -5 -20 7 -22 20 -4 27 6 3 2 6 -9 6 -15 1
-21 -5 -20 -16 1 -12 -7 -19 -23 -21 -20 -3 -23 0 -18 17 3 12 2 21 -3 21 -4
0 -10 -9 -13 -20 -3 -11 -13 -20 -24 -20 -11 0 -14 3 -7 8 9 5 8 11 -3 21 -12
11 -15 10 -20 -8 -3 -12 -13 -21 -25 -21 -10 0 -17 3 -15 8 3 4 1 16 -4 27 -6
17 -8 17 -8 3 -1 -12 -9 -18 -26 -18 -14 0 -25 5 -25 10 0 6 -7 10 -15 10 -8
0 -12 -6 -9 -14 3 -8 -3 -16 -15 -19 -12 -3 -21 -12 -21 -21 0 -9 -1 -19 -1
-23 -2 -13 -58 -63 -70 -63 -6 0 -18 -9 -27 -20 -15 -19 -19 -19 -37 -7 -15
11 -17 18 -8 28 6 8 13 68 16 134 2 66 8 130 12 143 6 17 3 22 -9 22 -9 0 -16
5 -16 11 0 10 892 6 1360 -6z m103 -462 c-5 -13 -3 -15 13 -8 10 4 26 8 34 9
9 1 21 5 28 10 7 4 12 2 12 -6 0 -19 23 -68 32 -68 4 0 9 12 11 28 3 22 4 20
6 -10 1 -29 -2 -36 -14 -32 -8 4 -15 1 -15 -5 0 -6 11 -11 25 -11 18 0 25 5
25 19 0 11 5 23 11 26 19 12 20 -2 2 -32 -12 -19 -26 -29 -43 -29 -14 0 -24
-6 -22 -12 2 -13 -11 -16 -21 -5 -4 3 0 11 8 17 12 10 12 14 0 30 -12 16 -15
17 -15 4 0 -13 -10 -15 -59 -12 -34 3 -62 0 -66 -6 -3 -5 -11 -10 -16 -10 -6
0 3 12 21 26 25 22 28 28 17 38 -22 17 -31 50 -12 43 8 -4 17 -2 20 3 10 17
25 11 18 -7z m-1416 -66 c14 -14 15 -21 6 -36 -9 -14 -11 -64 -7 -171 4 -132
3 -152 -10 -147 -8 3 -28 -6 -45 -20 -27 -24 -36 -26 -122 -25 -55 0 -97 -4
-100 -11 -4 -5 -14 -7 -24 -4 -9 4 -13 11 -10 17 3 5 2 10 -3 10 -6 0 -12 -6
-15 -12 -3 -10 -75 -12 -318 -11 -187 2 -440 -4 -624 -13 -170 -9 -475 -16
-677 -16 -331 -1 -369 -2 -385 -18 -26 -24 -129 -34 -137 -13 -5 12 -15 14
-41 10 -42 -7 -49 17 -11 34 19 9 24 19 23 45 -1 19 -5 34 -9 34 -4 0 -8 -4
-8 -10 0 -5 -6 -10 -14 -10 -8 0 -16 -10 -18 -22 -4 -21 -18 167 -22 281 -1
30 -8 54 -19 65 -22 22 -22 28 1 24 9 -1 24 2 32 7 9 6 367 13 890 17 481 4
898 9 925 11 28 2 202 4 387 3 308 -1 339 -3 355 -19z m2513 -159 c0 -9 2 -10
8 -2 9 15 261 14 259 -1 -1 -5 8 -11 21 -13 39 -6 24 -17 -23 -16 -25 0 -45
-3 -45 -8 0 -4 11 -8 25 -8 28 0 35 -20 8 -21 -11 0 -13 -3 -5 -6 23 -9 12
-23 -18 -23 -16 0 -29 3 -29 8 1 4 0 10 -1 15 -1 4 -4 16 -5 27 -1 11 -3 23
-4 28 -1 6 -41 8 -78 4 -7 -1 -13 -11 -13 -21 0 -11 -9 -26 -19 -33 -17 -12
-17 -16 -5 -33 26 -36 6 -95 -26 -75 -8 5 -18 6 -24 3 -5 -3 -6 -1 -2 5 4 7 2
12 -4 12 -6 0 -8 10 -6 23 3 12 8 43 11 70 5 40 4 47 -10 47 -15 0 -16 -9 -12
-60 3 -45 1 -65 -10 -75 -20 -20 -26 -19 -18 4 4 13 0 20 -15 24 -16 4 -20 13
-20 46 0 23 5 41 10 41 6 0 10 5 10 10 0 6 -7 10 -15 10 -21 0 -19 18 3 23 33
9 52 7 52 -5z m426 2 c25 -9 32 -21 53 -86 25 -82 20 -113 -22 -136 -32 -17
-48 11 -52 90 -2 39 -6 76 -10 82 -3 6 -3 10 2 9 20 -4 22 3 7 26 -18 28 -18
29 22 15z m-2460 -203 c-4 -105 -9 -194 -12 -197 -3 -3 -30 -5 -59 -5 -43 0
-58 5 -75 23 -11 12 -24 22 -28 22 -17 0 -71 57 -77 82 -5 19 -15 29 -37 33
-29 7 -30 8 -25 58 4 49 34 147 49 162 14 14 70 20 169 17 l102 -3 -7 -192z
m869 169 c33 1 69 2 80 3 60 6 945 -16 953 -24 8 -7 1 -307 -7 -329 -6 -15 -6
-27 2 -35 18 -18 -12 -39 -73 -50 l-55 -10 50 1 c28 0 73 -1 101 -1 l51 -1 -3
-76 c-2 -42 -5 -79 -8 -81 -2 -3 -13 4 -23 14 -19 18 -66 43 -83 43 -6 0 -10
-8 -10 -17 0 -16 -2 -16 -11 -3 -9 12 -10 11 -6 -6 3 -13 -3 -25 -14 -32 -26
-16 -42 -15 -36 3 4 8 2 17 -2 20 -5 3 -7 13 -5 23 4 13 -2 17 -23 19 -15 0
-31 -4 -35 -10 -5 -8 -29 -11 -70 -8 -35 2 -118 4 -185 4 -67 0 -120 3 -118 7
7 11 -52 20 -117 19 -57 -2 -58 -2 -51 -28 6 -24 5 -25 -11 -12 -9 8 -15 20
-12 28 3 7 2 13 -2 13 -4 0 -79 2 -167 5 l-160 5 -27 -33 c-20 -23 -28 -27
-28 -15 0 9 5 20 10 23 15 9 12 25 -5 25 -8 0 -15 -6 -16 -12 0 -9 -2 -9 -5
-2 -7 17 -56 4 -50 -12 6 -15 -6 -19 -18 -6 -4 4 -11 7 -14 7 -4 1 -25 5 -47
9 -53 12 -97 8 -111 -9 -9 -12 -13 -10 -24 10 -11 21 -20 25 -57 23 -24 -1
-43 -5 -43 -10 0 -4 7 -8 15 -8 8 0 15 -5 15 -10 0 -7 -8 -7 -22 1 -16 8 -23
9 -26 1 -2 -7 -14 -4 -33 7 -17 10 -39 16 -50 14 -14 -4 -19 0 -19 16 0 23 -1
24 -26 14 -16 -6 -16 -7 2 -14 15 -6 12 -8 -13 -8 -17 -1 -39 -8 -47 -17 -12
-12 -16 -12 -16 -2 0 13 -25 16 -85 9 -18 -1 -19 -2 -2 -12 23 -14 22 -45 -3
-52 -21 -5 -34 7 -36 33 -3 40 -5 46 -21 47 -10 1 -43 4 -73 7 -30 2 -56 9
-58 15 -8 24 -18 9 -16 -21 4 -38 -13 -98 -27 -98 -17 0 -23 32 -8 41 10 6 10
9 2 9 -20 0 -15 30 5 30 14 0 14 2 -4 13 -12 6 -31 18 -43 25 -17 10 -21 10
-21 0 0 -9 -2 -10 -8 -2 -7 12 -31 17 -64 15 -14 -1 -18 -10 -18 -43 0 -40
-13 -78 -23 -68 -12 13 -17 69 -8 75 16 9 13 25 -3 25 -8 0 -18 9 -21 20 -4
11 -10 18 -15 15 -5 -3 -6 -15 0 -29 9 -25 -3 -56 -14 -37 -4 6 -4 16 -1 21 3
6 3 15 -1 21 -4 8 -12 3 -20 -12 l-14 -24 -6 23 c-5 19 -11 22 -31 17 -21 -5
-24 -3 -18 13 6 21 -18 37 -38 25 -8 -4 -7 -1 1 9 10 13 10 17 -2 21 -9 4 -19
0 -23 -7 -14 -23 -45 -28 -59 -9 -8 11 -13 13 -14 6 0 -7 -10 -13 -22 -14 -17
0 -19 -2 -8 -7 8 -4 16 -19 18 -34 2 -24 -2 -28 -35 -35 -21 -4 -59 -7 -86 -7
-38 0 -53 6 -77 29 l-30 29 -24 -23 c-24 -22 -25 -22 -43 -4 -11 10 -28 23
-37 28 -13 8 -16 17 -11 38 4 15 12 27 19 27 6 0 16 11 23 25 9 20 8 25 -3 25
-8 0 -14 -7 -14 -15 0 -8 -4 -15 -10 -15 -5 0 -10 7 -10 15 0 17 -11 20 -25 6
-16 -15 -80 -17 -78 -3 4 16 -14 16 -24 0 -23 -37 -4 -71 34 -62 21 6 24 3 21
-12 -2 -13 -13 -20 -36 -22 -29 -3 -32 -6 -32 -38 0 -24 4 -34 16 -34 8 0 12
-4 9 -10 -3 -5 1 -10 9 -10 22 0 20 16 -5 34 -25 17 -19 46 9 46 17 0 19 -9
20 -77 0 -54 -2 -71 -8 -56 -12 28 -52 20 -48 -10 2 -14 -3 -21 -19 -23 -24
-4 -32 11 -10 19 8 4 9 8 1 14 -15 11 -11 69 4 66 7 -2 12 4 12 12 0 8 -4 15
-9 15 -5 0 -8 29 -7 65 2 49 -1 66 -13 70 -17 7 -35 -17 -19 -26 8 -5 5 -20
-9 -48 -13 -25 -16 -41 -9 -42 6 0 1 -5 -12 -11 -12 -6 -26 -8 -30 -3 -4 4 -1
10 7 13 10 3 10 6 1 12 -7 4 -14 27 -16 51 -6 67 -6 67 -20 65 -19 -3 -29 -15
-29 -34 0 -12 -10 -18 -31 -20 -29 -3 -30 -1 -26 27 3 24 1 31 -13 31 -33 0
-55 -20 -55 -51 l0 -31 -29 31 c-35 38 -76 43 -66 9 4 -13 14 -29 23 -36 12
-9 13 -15 6 -20 -15 -10 -28 -82 -14 -82 5 0 10 7 10 15 0 8 5 15 10 15 11 0
12 -57 2 -80 -8 -18 -152 -28 -152 -10 0 5 6 10 13 10 7 0 13 10 14 23 1 19 0
20 -10 5 -9 -14 -13 -14 -33 -1 -14 9 -24 10 -28 4 -4 -5 3 -15 14 -21 24 -13
28 -60 5 -60 -8 0 -15 7 -15 15 0 8 -7 15 -16 15 -10 0 -14 -6 -11 -15 8 -18
-11 -31 -25 -17 -8 8 -17 8 -31 0 -14 -7 -22 -7 -27 2 -5 7 -10 8 -14 2 -3 -5
3 -17 14 -27 11 -10 20 -23 20 -28 0 -5 -12 3 -26 18 -18 20 -35 28 -57 27
-17 0 -33 -6 -35 -11 -2 -6 -9 -11 -15 -11 -8 0 -12 28 -12 89 -1 97 -17 150
-41 130 -9 -7 -19 -7 -35 2 -12 6 -52 12 -88 13 -59 1 -66 -1 -63 -17 5 -27
-16 -47 -49 -47 -16 0 -29 -4 -29 -10 0 -14 52 -12 71 3 9 7 21 22 28 35 6 12
19 22 28 22 15 0 15 -1 0 -17 -106 -115 -168 -148 -175 -95 -3 17 1 22 19 22
22 0 22 -1 4 -13 -13 -10 -15 -16 -6 -21 12 -8 51 19 51 34 0 4 -9 10 -20 13
-16 4 -20 14 -20 46 0 43 -9 50 -33 27 -8 -9 -19 -11 -27 -6 -8 5 -22 4 -32
-1 -10 -5 -18 -7 -18 -4 0 3 -13 -1 -30 -10 -19 -10 -30 -11 -30 -5 0 6 -5 8
-10 5 -6 -4 -8 -15 -5 -26 8 -23 -8 -25 -26 -3 -7 9 -22 14 -36 11 -13 -2 -26
0 -29 4 -3 5 -16 9 -30 9 -14 0 -34 4 -44 10 -15 8 -20 6 -25 -11 -7 -19 -8
-20 -26 -3 -20 18 -33 13 -35 -14 -3 -44 -5 -52 -13 -52 -5 0 -12 8 -14 18 -3
9 -5 -8 -6 -39 -1 -43 -6 -60 -22 -75 -14 -13 -18 -25 -14 -44 l6 -25 -16 22
c-9 12 -24 41 -34 64 -11 24 -21 36 -26 30 -4 -7 -1 -18 5 -26 17 -21 4 -69
-16 -61 -23 9 -37 -3 -23 -20 9 -12 5 -14 -25 -14 -33 0 -37 2 -31 20 4 14 2
20 -9 20 -10 0 -13 -6 -9 -17 5 -16 4 -17 -8 -2 -28 33 -72 32 -46 0 10 -14
10 -14 -3 -5 -8 7 -30 15 -47 19 -18 3 -33 11 -33 16 0 5 -11 9 -25 9 -25 0
-34 14 -16 24 5 3 8 14 6 24 -1 9 0 11 2 5 3 -7 9 -13 14 -13 5 0 9 6 10 13 0
6 4 2 9 -11 9 -20 14 -22 47 -16 21 4 41 9 46 11 12 7 8 32 -10 60 -16 24 -16
26 0 38 9 7 17 16 17 20 0 4 -7 2 -16 -6 -13 -11 -14 -9 -9 17 l6 29 -20 -24
c-16 -17 -21 -19 -21 -7 0 10 -6 13 -15 10 -18 -7 -20 7 -4 23 16 16 3 32 -21
26 -23 -6 -25 0 -9 30 7 12 12 30 13 41 1 23 0 23 196 25 58 1 146 5 195 10
65 6 92 6 98 -3 5 -8 9 -8 15 1 6 9 126 15 452 23 245 6 453 12 463 15 11 2
45 -1 78 -6 45 -7 66 -6 93 5 18 7 38 11 45 7 18 -11 420 -11 486 0 74 13 78
13 253 7 78 -2 142 -1 142 3 0 16 33 18 55 3 27 -17 81 -15 78 3 -4 17 33 26
72 19 28 -6 32 -10 27 -29 -3 -12 -13 -28 -23 -35 -15 -11 -17 -23 -13 -80 6
-74 17 -95 36 -69 11 14 35 16 173 15 88 0 210 -1 270 -3 70 -2 95 0 70 5
l-40 7 43 2 c27 1 42 -3 43 -11 0 -9 2 -9 5 -2 3 6 17 10 32 8 17 -2 20 -1 7
3 -11 3 -24 10 -28 17 -4 6 -7 102 -5 214 l3 203 265 -8 c146 -4 292 -7 325
-7z m-3965 -36 c0 -5 -8 -13 -17 -18 -21 -12 -27 -78 -21 -233 2 -44 -11 -77
-33 -84 -12 -4 -24 -3 -28 2 -6 10 -55 15 -168 16 -41 1 -64 5 -67 14 -3 7
-11 13 -18 13 -9 0 -9 -3 2 -10 8 -5 11 -12 7 -16 -4 -4 1 -13 11 -21 16 -14
16 -14 -1 -9 -10 3 -28 6 -39 6 -16 0 -18 3 -9 14 17 20 -5 32 -26 14 -11 -9
-14 -9 -9 -1 4 7 -2 20 -13 30 -16 14 -18 20 -8 32 10 12 9 14 -6 8 -10 -4
-27 -7 -38 -7 -10 0 -19 -7 -19 -15 0 -17 17 -20 22 -4 2 7 9 5 17 -5 12 -14
9 -16 -23 -16 -23 0 -36 -5 -36 -13 0 -10 -23 -13 -97 -13 -89 1 -98 3 -95 19
3 19 -14 47 -29 47 -5 0 -9 -16 -9 -36 0 -24 -4 -34 -12 -31 -7 2 -12 11 -10
21 2 9 -1 16 -5 16 -4 0 -19 3 -32 7 -17 4 -22 3 -17 -5 5 -8 -1 -12 -18 -12
-20 0 -24 -4 -20 -17 3 -10 -4 -6 -16 10 -22 27 -50 37 -50 16 0 -5 -5 -7 -10
-4 -6 4 -16 2 -23 -3 -7 -5 -34 -12 -61 -16 -28 -3 -53 -11 -56 -16 -5 -7 -15
-8 -33 -1 -18 7 -28 7 -32 0 -4 -5 -14 -7 -23 -5 -28 9 -74 8 -132 -3 -43 -8
-56 -8 -62 3 -6 10 -19 11 -63 4 -40 -7 -59 -7 -69 1 -8 7 -17 8 -20 3 -12
-20 -299 -32 -346 -14 -19 7 -28 6 -37 -7 -11 -14 -12 -14 -13 3 0 11 -3 16
-7 12 -5 -4 -8 -13 -8 -19 0 -16 -57 -15 -63 1 -2 6 4 12 14 12 16 0 16 1 -2
14 -18 14 -18 15 6 25 24 9 24 10 3 10 -20 1 -23 6 -23 42 0 38 2 41 23 35 12
-3 28 -6 35 -6 22 0 13 -20 -10 -21 l-23 -1 23 -6 c13 -4 23 -11 22 -17 -1 -5
3 -11 9 -13 6 -2 11 1 11 7 0 6 9 11 19 11 10 0 21 6 24 14 6 15 102 40 118
30 5 -3 9 0 9 5 0 6 15 11 34 11 19 0 38 5 42 11 3 6 19 9 35 7 16 -3 29 -2
29 2 0 4 12 7 28 7 39 1 345 32 420 43 71 10 85 18 102 60 7 17 22 32 34 35
20 4 740 31 924 34 46 0 82 -3 82 -9z m7130 -279 c-36 -21 -304 -50 -482 -52
-85 -1 -135 -5 -132 -11 4 -6 -29 -9 -87 -7 -91 2 -321 -7 -424 -18 -27 -3
-138 -6 -246 -7 -158 -2 -202 -6 -229 -19 -18 -10 -43 -17 -56 -17 -12 0 -24
-4 -26 -9 -1 -5 -16 -12 -33 -14 -49 -8 -75 -19 -69 -29 3 -5 -2 -8 -12 -7
-11 2 -26 -1 -34 -6 -8 -5 -23 -10 -35 -12 -11 -1 -33 -4 -49 -7 -16 -2 -33
-11 -38 -20 -7 -13 -13 -14 -23 -6 -10 8 -15 3 -24 -22 -8 -23 -8 -33 0 -39 8
-5 8 -8 -1 -14 -6 -4 -10 -23 -8 -43 2 -19 -1 -37 -7 -39 -6 -2 -10 61 -10
177 0 204 -7 190 90 185 151 -8 362 -6 387 4 32 12 85 13 323 5 242 -7 1148
16 1190 31 6 2 19 4 30 4 16 0 17 -1 5 -8z m-7626 -881 c-10 -10 -203 -18
-799 -35 -283 -9 -306 -9 -725 -5 -431 4 -341 13 260 25 212 4 538 11 725 15
552 11 550 11 539 0z m3730 -374 c48 -16 89 -13 114 7 16 13 492 11 505 -2 10
-10 -142 -20 -260 -17 -76 2 -81 1 -72 -16 16 -30 18 -97 3 -109 -8 -6 -14
-19 -15 -28 -1 -38 -18 27 -20 79 l-2 55 -7 -63 c-10 -90 -20 -88 -21 4 0 43
-2 75 -5 69 -2 -6 -46 -9 -110 -7 -80 3 -109 0 -115 -10 -7 -10 -9 -10 -9 0 0
6 -4 12 -10 12 -6 0 -10 -26 -10 -59 0 -45 -4 -60 -16 -65 -31 -12 -42 11 -38
72 l5 58 -31 2 -30 2 0 -64 c0 -67 -8 -81 -38 -72 -14 5 -16 15 -14 63 2 32 8
63 14 70 7 8 -5 13 -44 18 -61 7 -100 4 -110 -9 -3 -5 -4 -24 -1 -42 3 -18 2
-54 -2 -81 -5 -37 -9 -44 -16 -30 -6 9 -17 17 -25 17 -14 0 -14 2 0 16 19 18
22 95 5 126 -8 15 -8 19 0 14 6 -4 18 -3 28 2 26 15 290 6 347 -12z m1196 -1
c96 -4 231 -10 300 -15 69 -5 144 -10 168 -10 38 0 42 -2 42 -25 0 -23 -2 -24
-27 -14 -49 18 -246 40 -408 44 -88 3 -223 7 -300 10 -77 2 -170 5 -207 5 -38
0 -68 4 -68 10 0 9 107 8 500 -5z m1400 -135 c24 -6 -5 -8 -96 -9 l-132 -1 -7
-65 c-5 -55 -10 -65 -25 -65 -13 0 -17 5 -14 14 3 9 -1 13 -12 13 -12 -2 -20
9 -26 32 -11 39 -20 35 -25 -11 -2 -18 -8 -37 -14 -43 -7 -7 -8 -4 -3 10 7 17
6 18 -8 7 -12 -10 -18 -10 -28 2 -6 9 -9 20 -5 25 3 7 0 8 -9 5 -18 -7 -22
-24 -5 -24 5 0 7 -5 4 -10 -4 -7 -15 -2 -27 12 -20 22 -20 22 -14 2 4 -15 2
-24 -8 -27 -9 -4 -13 -1 -10 7 4 9 -12 12 -66 11 -62 -2 -69 0 -58 13 11 13
10 15 -4 10 -13 -5 -18 2 -26 30 -9 36 -9 36 -17 -32 -4 -37 -8 -94 -9 -125
-1 -51 -3 -56 -25 -59 -23 -4 -24 -2 -17 45 3 26 3 87 0 136 -7 83 -8 87 -30
87 -33 0 -30 18 4 22 55 6 678 -4 712 -12z m204 -12 c-6 -10 -4 -10 8 0 11 9
17 9 20 2 2 -6 19 -12 38 -13 19 -1 41 -6 48 -10 7 -5 14 -2 18 7 6 17 68 14
90 -5 7 -6 22 -8 32 -5 12 4 25 0 33 -11 13 -15 12 -16 -8 -11 -13 4 -23 2
-23 -2 0 -4 -29 -7 -65 -7 -36 1 -65 -1 -65 -5 0 -4 -17 -5 -37 -2 -21 3 -61
7 -90 7 -28 1 -55 5 -59 10 -4 4 -25 7 -46 7 -38 0 -49 12 -26 26 9 6 5 10
-12 15 -15 4 11 7 63 8 68 1 86 -2 81 -11z m-7204 -340 c244 -8 298 -12 312
-25 10 -9 15 -19 13 -23 -3 -5 0 -10 7 -12 6 -2 9 -12 5 -21 -9 -25 -51 -21
-84 7 -26 22 -39 25 -101 23 -64 -1 -72 -3 -72 -20 0 -19 -1 -19 -19 -3 -18
17 -21 16 -55 -18 -40 -40 -46 -43 -46 -19 0 13 -4 12 -19 -6 -20 -23 -41 -21
-41 4 0 16 -25 26 -44 19 -8 -3 -21 5 -30 17 l-15 22 -18 -30 c-11 -21 -25
-30 -41 -30 -13 0 -28 -6 -32 -13 -6 -9 -10 -8 -17 5 -8 14 -14 15 -31 6 -28
-15 -32 -14 -32 9 0 13 -7 20 -20 20 -13 0 -18 -5 -14 -15 10 -24 -59 -24 -83
1 -16 16 -41 18 -62 5 -9 -6 -22 -6 -33 0 -14 8 -19 4 -26 -23 -4 -17 -14 -34
-21 -36 -10 -3 -12 2 -7 21 7 29 -7 38 -47 30 -32 -6 -38 16 -7 24 11 3 20 13
20 22 0 14 -2 14 -10 1 -8 -12 -10 -12 -16 3 -3 9 -11 14 -17 10 -6 -4 -8 0
-4 11 6 14 -1 16 -47 14 l-54 -2 -7 -43 c-9 -59 -23 -54 -20 8 2 49 2 50 -24
47 -14 -1 -30 -5 -36 -9 -5 -3 -22 -9 -37 -13 -24 -5 -28 -3 -28 14 0 12 -4
18 -10 15 -5 -3 -18 -1 -27 4 -23 14 580 13 997 -1z m560 -41 c30 0 58 -5 62
-11 9 -14 81 -13 86 2 2 7 8 12 13 12 4 0 5 -8 2 -17 -5 -15 -4 -16 8 -7 21
17 86 26 94 14 4 -6 22 -7 46 -4 27 5 39 3 39 -5 0 -8 11 -10 30 -7 17 2 30 1
30 -4 0 -5 3 -15 6 -24 3 -9 1 -16 -6 -16 -6 0 -8 5 -5 10 3 6 1 10 -4 10 -6
0 -11 -7 -11 -15 0 -8 -10 -19 -21 -26 -24 -13 -109 -24 -94 -12 6 5 12 19 13
32 3 19 0 22 -13 17 -9 -3 -25 -6 -36 -6 -10 0 -19 -7 -19 -15 0 -8 -5 -15
-11 -15 -5 0 -7 5 -4 10 3 6 1 10 -4 10 -6 0 -11 -5 -11 -11 0 -7 -10 -9 -27
-5 -39 10 -67 9 -71 -3 -3 -9 -58 1 -97 19 -52 24 -110 39 -119 30 -16 -16
-55 -11 -64 8 -17 32 -4 39 66 34 37 -2 92 -4 122 -5z m1125 -136 c81 -16 87
-19 58 -26 -42 -10 -43 -25 -1 -25 49 0 22 -15 -74 -40 -48 -12 -89 -29 -92
-36 -3 -9 1 -14 12 -14 16 0 127 24 165 36 11 3 17 0 17 -10 0 -9 -11 -16 -27
-18 -22 -2 -29 -9 -31 -30 -3 -25 0 -28 27 -28 28 0 31 -3 31 -30 0 -28 -2
-29 -20 -18 -18 12 -18 13 -3 19 10 3 -17 11 -60 17 -99 15 -120 15 -111 0 4
-7 3 -8 -4 -4 -7 4 -12 31 -12 60 l0 52 65 13 c36 7 65 17 65 22 0 13 -49 10
-92 -5 l-38 -14 0 30 0 29 54 -6 c85 -11 92 7 11 26 -94 23 -52 23 60 0z
m2295 -122 c0 -5 5 -7 11 -4 10 7 314 7 414 0 28 -1 298 -6 600 -11 515 -7
542 -9 430 -20 -247 -24 -1268 -117 -1437 -130 l-88 -7 -2 39 c-3 80 7 124 27
124 8 0 15 5 15 10 0 6 7 10 15 10 8 0 15 -5 15 -11z m-166 -70 c8 -12 19 -18
25 -14 6 3 11 1 11 -4 0 -6 -4 -11 -10 -11 -5 0 -10 -13 -10 -30 0 -21 5 -30
16 -30 9 0 12 -5 8 -11 -4 -8 -32 -10 -80 -7 -40 3 -71 2 -69 -2 3 -4 -6 -7
-20 -7 -14 0 -22 3 -19 8 3 5 -4 9 -16 9 -11 0 -23 -7 -26 -15 -4 -8 -10 -15
-16 -15 -5 0 -6 5 -3 10 3 6 1 10 -4 10 -6 0 -11 -5 -11 -12 0 -6 -3 -8 -7 -5
-3 4 -15 -1 -26 -10 -11 -10 -17 -12 -13 -5 4 7 0 19 -8 28 -15 14 -20 11 -17
-8 2 -13 -23 -9 -47 8 -13 9 -38 17 -55 19 -18 1 -43 6 -56 10 -16 6 -22 5
-17 -3 3 -6 2 -13 -4 -17 -5 -3 -10 1 -10 9 0 9 -5 16 -11 16 -6 0 -7 -6 -2
-12 4 -7 -5 -5 -19 4 l-26 17 8 -29 c12 -41 -3 -38 -18 3 -21 59 -19 61 59 53
51 -4 83 -2 114 9 47 15 185 17 185 2 0 -5 7 -2 15 7 9 8 22 13 30 10 8 -4 15
-1 15 5 0 6 6 8 13 5 7 -2 27 2 43 11 40 20 60 19 78 -6z m2546 -334 c6 3 10
-1 10 -9 0 -11 -10 -16 -33 -16 -18 0 -38 -5 -44 -11 -7 -7 -52 -13 -105 -15
-215 -6 -369 -14 -543 -29 -33 -3 -98 -7 -145 -10 -47 -3 -107 -8 -135 -11
-27 -3 -93 -7 -145 -8 -52 -2 -106 -6 -120 -9 -14 -4 -70 -10 -125 -13 -107
-7 -160 -11 -160 -14 0 -1 -25 -2 -55 -3 -30 -1 -58 -6 -62 -12 -6 -7 -11 -5
-17 4 -11 16 -51 6 -51 -14 0 -23 -20 -28 -39 -11 -20 18 -37 20 -46 6 -3 -6
1 -7 9 -4 27 10 17 -5 -13 -20 -16 -9 -31 -12 -35 -9 -10 10 -7 35 4 28 6 -3
10 -2 10 4 0 5 -20 9 -45 9 -24 -1 -42 -5 -39 -10 6 -10 -20 -11 -30 0 -4 4
-17 7 -29 7 -11 0 -22 6 -24 13 -4 11 49 19 82 12 5 -1 53 3 105 10 52 6 127
13 165 15 201 12 234 14 285 20 30 3 96 10 145 15 50 6 107 10 127 10 21 -1
86 4 145 10 59 7 171 16 248 20 195 12 352 24 530 41 66 6 122 12 124 14 2 3
12 0 23 -6 10 -5 23 -7 28 -4z m-2020 -160 c0 -14 -123 -33 -213 -34 -60 -1
-114 -4 -120 -8 -7 -5 -28 -9 -47 -9 -34 -2 -96 -10 -135 -19 -11 -3 -33 -7
-50 -11 -29 -5 -29 -5 -11 10 25 20 9 20 -39 0 -20 -8 -34 -10 -30 -5 3 6 1
11 -5 11 -6 0 -13 -6 -15 -12 -7 -18 -80 -15 -80 3 0 7 11 17 25 21 50 14 217
29 298 26 45 -2 82 0 82 5 0 4 17 7 38 8 20 0 55 4 77 8 38 8 225 13 225 6z
m-4050 -46 c0 -4 -8 -17 -18 -29 -14 -18 -31 -22 -97 -26 -44 -3 -84 -5 -90
-5 -65 7 -207 11 -320 10 -202 -2 -225 -3 -234 -18 -7 -10 -9 -10 -14 1 -3 9
-23 15 -50 17 -42 2 -47 -1 -62 -29 -12 -23 -22 -30 -45 -30 -24 0 -29 5 -32
28 l-3 27 -110 1 c-170 2 -177 2 -170 17 4 6 -2 2 -13 -10 l-19 -22 -11 22
c-8 17 -11 18 -11 5 -1 -13 -8 -16 -28 -13 -125 16 -197 27 -213 33 -10 4 81
7 203 8 245 0 909 13 913 17 6 5 424 1 424 -4z m3247 -135 c32 7 59 -6 49 -23
-5 -8 -12 -7 -25 1 -29 18 -51 3 -52 -34 -1 -30 -2 -31 -8 -8 -7 25 -7 25
-127 24 -65 0 -173 -5 -239 -12 -179 -18 -453 -42 -510 -45 -47 -2 -50 -4 -54
-32 l-4 -30 -6 30 c-5 25 -11 30 -31 27 -111 -12 -352 -32 -380 -31 -19 0 -64
-3 -99 -7 -42 -4 -62 -3 -58 3 4 6 37 13 74 17 38 3 113 11 168 16 92 9 248
23 545 50 63 5 144 14 180 20 36 5 97 12 135 15 113 8 155 16 155 27 0 7 4 7
13 0 7 -6 22 -9 33 -7 10 2 37 7 59 10 22 4 58 10 80 14 33 6 43 4 57 -11 13
-14 25 -18 45 -14z"/>
<path d="M7355 27910 c-29 -7 -18 -14 18 -11 30 4 49 -24 37 -54 -5 -14 -10
-98 -10 -186 l0 -159 68 -1 c37 -1 80 -2 95 -3 l28 -3 -3 203 c-2 111 -7 206
-11 211 -11 11 -184 14 -222 3z"/>
</g>
</svg>
